<svg width="205" height="31" viewBox="0 0 205 31" fill="none" xmlns="http://www.w3.org/2000/svg">
<path d="M23.3859 5.83438C23.4328 5.84375 23.4562 5.86719 23.4562 5.90469V9.72969C23.4562 9.77656 23.4328 9.8 23.3859 9.8H9.88594C7.91719 9.8 6.24844 10.7469 4.87969 12.6406C4.27031 13.6813 3.96562 14.7078 3.96562 15.7203V25.9297C3.96562 25.9766 3.94219 26 3.89531 26H0.0703125C0.0234375 26 0 25.9766 0 25.9297V15.6219C0 13.0813 1.02656 10.7563 3.07969 8.64688C5.15156 6.77188 7.3875 5.83438 9.7875 5.83438H23.3859ZM23.3578 13.625C23.4234 13.6344 23.4562 13.6578 23.4562 13.6953V17.5203C23.4562 17.5672 23.4234 17.5906 23.3578 17.5906H2.57344C2.50781 17.5906 2.475 17.5672 2.475 17.5203V13.6953C2.48437 13.6484 2.51719 13.625 2.57344 13.625H23.3578ZM43.1297 5.83438C44.5641 5.83438 45.9 6.5 47.1375 7.83125C47.925 8.9375 48.3187 9.96875 48.3187 10.925V13.8219C48.3187 15.275 47.6062 16.6203 46.1812 17.8578C45.1875 18.6078 43.9828 18.9828 42.5672 18.9828L48.2062 26.0562L43.2281 26.0281L37.4766 18.9828H28.4344C28.425 18.9828 28.4203 18.9594 28.4203 18.9125V15.0875C28.4297 15.0406 28.4531 15.0172 28.4906 15.0172H42.6094C43.3969 15.0172 43.9359 14.7359 44.2266 14.1734C44.3391 13.9109 44.3953 12.9547 44.3953 11.3047C44.3953 10.6016 44.0109 10.1094 43.2422 9.82813C43.1484 9.80938 43.0547 9.8 42.9609 9.8H28.8281V25.9297C28.8281 25.9766 28.8047 26 28.7578 26H24.9328C24.8859 26 24.8625 25.9766 24.8625 25.9297V5.90469C24.8719 5.85781 24.8953 5.83438 24.9328 5.83438H43.1297ZM73.1109 5.83438C73.1578 5.84375 73.1812 5.86719 73.1812 5.90469V9.72969C73.1812 9.77656 73.1578 9.8 73.1109 9.8H59.6109C57.6422 9.8 55.9734 10.7469 54.6047 12.6406C53.9953 13.6813 53.6906 14.7078 53.6906 15.7203V16.1141C53.6906 17.9141 54.4969 19.4797 56.1094 20.8109C57.225 21.6266 58.3828 22.0344 59.5828 22.0344H73.1109C73.1578 22.0438 73.1812 22.0672 73.1812 22.1047V25.9297C73.1812 25.9766 73.1578 26 73.1109 26H59.4703C57.1734 26 54.9984 25.1094 52.9453 23.3281C51.8391 22.2031 51.1031 21.2234 50.7375 20.3891C50.0625 18.9359 49.725 17.5438 49.725 16.2125V15.6219C49.725 13.0813 50.7516 10.7563 52.8047 8.64688C54.8766 6.77188 57.1125 5.83438 59.5125 5.83438H73.1109ZM73.1812 13.9203V17.7875H53.2266V13.9203H73.1812ZM88.2984 5.83438C90.8578 5.83438 93.2297 6.90781 95.4141 9.05469C97.1672 11.1453 98.0437 13.2969 98.0437 15.5094V16.4234C98.0437 18.4391 97.2375 20.4734 95.625 22.5266C94.6969 23.4922 93.8812 24.1813 93.1781 24.5938C91.4812 25.5313 89.8547 26 88.2984 26H74.6578C74.6109 26 74.5875 25.9766 74.5875 25.9297V9.42031C74.5969 9.37344 74.6203 9.35 74.6578 9.35H78.4828C78.5297 9.35938 78.5531 9.38281 78.5531 9.42031V22.0344H88.2C90.1125 22.0344 91.7484 21.125 93.1078 19.3063C93.7828 18.2188 94.1203 17.0844 94.1203 15.9031C94.1203 13.7656 93.1406 12.0219 91.1812 10.6719C90.1594 10.0906 89.1656 9.8 88.2 9.8H74.6578C74.6109 9.8 74.5875 9.77656 74.5875 9.72969V5.90469C74.5969 5.85781 74.6203 5.83438 74.6578 5.83438H88.2984ZM122.836 5.83438C122.883 5.84375 122.906 5.86719 122.906 5.90469V9.72969C122.906 9.77656 122.883 9.8 122.836 9.8H109.336C107.367 9.8 105.698 10.7469 104.33 12.6406C103.72 13.6813 103.416 14.7078 103.416 15.7203V16.1141C103.416 17.9141 104.222 19.4797 105.834 20.8109C106.95 21.6266 108.108 22.0344 109.308 22.0344H122.836C122.883 22.0438 122.906 22.0672 122.906 22.1047V25.9297C122.906 25.9766 122.883 26 122.836 26H109.195C106.898 26 104.723 25.1094 102.67 23.3281C101.564 22.2031 100.828 21.2234 100.462 20.3891C99.7875 18.9359 99.45 17.5438 99.45 16.2125V15.6219C99.45 13.0813 100.477 10.7563 102.53 8.64688C104.602 6.77188 106.837 5.83438 109.237 5.83438H122.836ZM169.478 5.83438C172.038 5.83438 174.41 6.90781 176.594 9.05469C178.347 11.1453 179.224 13.2969 179.224 15.5094V16.4234C179.224 18.4391 178.418 20.4734 176.805 22.5266C175.877 23.4922 175.061 24.1813 174.358 24.5938C172.661 25.5313 171.035 26 169.478 26H155.838C155.791 26 155.768 25.9766 155.768 25.9297V9.42031C155.777 9.37344 155.8 9.35 155.838 9.35H159.663C159.71 9.35938 159.733 9.38281 159.733 9.42031V22.0344H169.38C171.293 22.0344 172.928 21.125 174.288 19.3063C174.963 18.2188 175.3 17.0844 175.3 15.9031C175.3 13.7656 174.321 12.0219 172.361 10.6719C171.339 10.0906 170.346 9.8 169.38 9.8H155.838C155.791 9.8 155.768 9.77656 155.768 9.72969V5.90469C155.777 5.85781 155.8 5.83438 155.838 5.83438H169.478ZM204.016 5.83438C204.063 5.84375 204.086 5.86719 204.086 5.90469V9.72969C204.086 9.77656 204.063 9.8 204.016 9.8H190.516C188.547 9.8 186.878 10.7469 185.51 12.6406C184.9 13.6813 184.596 14.7078 184.596 15.7203V16.1141C184.596 17.9141 185.402 19.4797 187.014 20.8109C188.13 21.6266 189.288 22.0344 190.488 22.0344H204.016C204.063 22.0438 204.086 22.0672 204.086 22.1047V25.9297C204.086 25.9766 204.063 26 204.016 26H190.375C188.078 26 185.903 25.1094 183.85 23.3281C182.744 22.2031 182.008 21.2234 181.642 20.3891C180.967 18.9359 180.63 17.5438 180.63 16.2125V15.6219C180.63 13.0813 181.657 10.7563 183.71 8.64688C185.782 6.77188 188.017 5.83438 190.417 5.83438H204.016ZM204.086 13.9203V17.7875H184.132V13.9203H204.086Z" fill="white"/>
<path d="M137.664 6.23589C139.259 7.40746 139.259 9.30696 137.664 10.4785L130.576 15.6857L126.727 12.8572L135.739 6.23589C136.271 5.84536 137.132 5.84536 137.664 6.23589V6.23589Z" fill="white"/>
<path d="M137.335 25.6803C136.804 26.0708 135.942 26.0708 135.41 25.6803L126.176 18.8958C124.05 17.3337 124.05 14.801 126.176 13.2389V13.2389L137.335 21.4376C138.93 22.6092 138.93 24.5087 137.335 25.6803V25.6803Z" fill="#986DFF"/>
<path d="M140.743 25.7641C139.149 24.5925 139.149 22.693 140.743 21.5215L147.831 16.3143L151.681 19.1428L142.668 25.7641C142.137 26.1546 141.275 26.1546 140.743 25.7641V25.7641Z" fill="white"/>
<path d="M141.072 6.31973C141.603 5.92921 142.465 5.92921 142.997 6.31973L152.231 13.1042C154.357 14.6663 154.357 17.199 152.231 18.7611V18.7611L141.072 10.5624C139.477 9.3908 139.477 7.4913 141.072 6.31973V6.31973Z" fill="#986DFF"/>
</svg>
