<svg width="48" height="48" viewBox="0 0 48 48" fill="none" xmlns="http://www.w3.org/2000/svg">
<path d="M21.3851 6.4246C23.5756 8.53344 23.5756 11.9525 21.3851 14.0614L11.6491 23.4342L6.36064 18.343L18.7408 6.42461C19.471 5.72166 20.6549 5.72166 21.3851 6.4246Z" fill="white"/>
<path d="M20.9337 41.4245C20.2036 42.1274 19.0197 42.1274 18.2895 41.4245L5.60425 29.2123C2.68354 26.4006 2.68354 21.8418 5.60425 19.03L20.9337 33.7877C23.1243 35.8966 23.1243 39.3156 20.9337 41.4245Z" fill="#986DFF"/>
<path d="M25.6151 41.5754C23.4245 39.4666 23.4245 36.0475 25.6151 33.9386L35.3511 24.5658L40.6395 29.657L28.2593 41.5754C27.5291 42.2783 26.3452 42.2783 25.6151 41.5754Z" fill="white"/>
<path d="M26.0664 6.57553C26.7966 5.87258 27.9804 5.87258 28.7106 6.57553L41.3959 18.7877C44.3166 21.5994 44.3166 26.1582 41.3959 28.97L26.0664 14.2123C23.8758 12.1034 23.8758 8.68436 26.0664 6.57553Z" fill="#986DFF"/>
</svg>
